<svg data-name="Ebene 1" xmlns="http://www.w3.org/2000/svg" viewBox="0 0 163.38 75.48"><path d="M62.76 2.91A8.29 8.29 0 0 0 56.54.49a18.78 18.78 0 0 0-10.22 3.44Q40.54-.01 32.05 0a32.84 32.84 0 0 0-20.4 7q-9.23 7-9.23 15.58a9.35 9.35 0 0 0 2.41 6.74 8.48 8.48 0 0 0 6.42 2.52q6.15 0 12.47-6t6.33-11.78q0-4.8-5-4.8-5.19 0-10.12 4.47t-4.88 9.19a5.35 5.35 0 0 0 .95 3.22 2.81 2.81 0 0 0 2.33 1.31q.55 0 .55-.24c0-.18-.16-.27-.49-.27a2.07 2.07 0 0 1-1.6-.78 2.75 2.75 0 0 1-.74-1.88q0-4.41 5-9.44t9.22-5q4.3 0 4.3 4.38 0 5.49-6.2 11.31t-12 5.82a7.82 7.82 0 0 1-5.64-2 7.08 7.08 0 0 1-2.08-5.37q0-6.67 7.4-14.21 9-9.2 21.21-9.2 8.72 0 13.23 4a41.93 41.93 0 0 0-6.73 6.61 81 81 0 0 0-6.87 9.21q-5.83 9.3-7.57 11.71a30.38 30.38 0 0 1-3.84 4.38 16.26 16.26 0 0 1-11.53 4.88 10.05 10.05 0 0 1-5.9-1.62 4.94 4.94 0 0 1-2.39-4.2q0-1.6.46-1.6c.1 0 .13.22.11.66q-.06 1.63 1.44 1.63a1.82 1.82 0 0 0 1.46-.72 2.68 2.68 0 0 0 .6-1.77q0-2-1.76-2a2.6 2.6 0 0 0-2.09 1.12A4.15 4.15 0 0 0 0 35.51a5.54 5.54 0 0 0 2.57 4.63 10.72 10.72 0 0 0 6.48 1.83 24.23 24.23 0 0 0 10.77-3.08 26.33 26.33 0 0 0 7.94-5.95q2.83-3.29 6.24-10.75Q39.63 9.87 45.9 4.98a9.34 9.34 0 0 1 2.41 6.3 11 11 0 0 1-2.35 7.06 7 7 0 0 1-5.63 3 7.13 7.13 0 0 1-3.6-1 1.15 1.15 0 0 0-.46-.18.23.23 0 0 0-.23.18q0 .57 1.79 1.21a9.94 9.94 0 0 0 3.35.64 9.71 9.71 0 0 0 7-2.87 9.06 9.06 0 0 0 3-6.73q0-4.59-4.35-8.21a18.23 18.23 0 0 1 9.77-3.34 7.47 7.47 0 0 1 5.72 2.31 8.59 8.59 0 0 1 2.17 6.12 13 13 0 0 1-.79 4.56 1 1 0 0 0-.06.27c0 .2.1.3.29.3s.51-.62.78-1.87a16.41 16.41 0 0 0 .41-3.45 8.76 8.76 0 0 0-2.35-6.38" fill="#948b5b"/><path d="M44.93 41.59q-12.56 8.53-18.37 14.92a4.64 4.64 0 0 1-1.77-3.54 4.9 4.9 0 0 1 .52-2.13q.52-1.08 1-1.08c.12 0 .17.06.17.18a3.18 3.18 0 0 1-.12.45 2 2 0 0 0-.29 1 1.25 1.25 0 0 0 1.44 1.35 2.35 2.35 0 0 0 1.7-.71 2.27 2.27 0 0 0 .72-1.67 1.68 1.68 0 0 0-1.94-1.87 3.35 3.35 0 0 0-2.65 1.28 4.61 4.61 0 0 0-1.09 3.09 5.33 5.33 0 0 0 1.91 4.1 44.08 44.08 0 0 0-5.69 7.36q-4.2-2.5-4.2-8.44 0-9 7.28-17.48t15.07-8.44a6.62 6.62 0 0 1 7 7 17.82 17.82 0 0 1-.72 4.58m6.61-1.42q-2.2 6.3-3.18 8.57a34.66 34.66 0 0 1-2.69 4.93 28.38 28.38 0 0 1-8.73 8.91 19.46 19.46 0 0 1-10.5 3.21 12.49 12.49 0 0 1-5.36-1.08 42.71 42.71 0 0 1 5.6-7.39 7.11 7.11 0 0 0 2.92.72q4.39 0 9.18-4.82a26.45 26.45 0 0 0 6.69-11.21q4-2.85 7.35-5.09-.72 1.72-1.24 3.29m-13.5 12.91q-4.43 4.43-8.48 4.43a5.33 5.33 0 0 1-2.6-.66q4.85-5.21 15.76-13.1l1.91-1.36a27.52 27.52 0 0 1-6.59 10.69m24.11-23.62a39.52 39.52 0 0 1-6.31 4.89 20.1 20.1 0 0 1 3.69-6.53q2.38-2.79 4.32-2.79.81 0 .81.72 0 1.27-2.5 3.71m1.67-4.93q-2.34 0-5.48 3.41a29.1 29.1 0 0 0-5.22 8.14q-3.24 2.06-7.47 5a16.07 16.07 0 0 0 .52-3.95 7.58 7.58 0 0 0-2.14-5.61 7.69 7.69 0 0 0-5.66-2.08q-6.54 0-13.22 5.12a31 31 0 0 0-8.12 9.07 20.12 20.12 0 0 0-2.87 10.12q0 7.92 6 11.17a11.53 11.53 0 0 0-1.45 5.19 9.48 9.48 0 0 0 .75 3.5q.74 1.87 1.39 1.87c.19 0 .29-.08.29-.24a.59.59 0 0 0-.17-.42 7.91 7.91 0 0 1-1.59-4.77 11.46 11.46 0 0 1 1.34-4.83 13.57 13.57 0 0 0 5.66 1.11q11.18 0 20.19-8.9a21 21 0 0 0 4.48-6 57.93 57.93 0 0 0 3-10.06q1-4.52 1.53-6.24a39.68 39.68 0 0 0 6.79-5.22q2.8-2.76 2.8-4.16 0-1.17-1.36-1.18M155.88 34.74h3.89v-7.38h3.6v-2.48h-11.1v2.48h3.6zm-12.11 0h3.89v-7.38h3.6v-2.48h-11.1v2.48h3.6zm-8.46 0h3.89v-9.86h-3.89zm-15.46 0h3.53v-7l2.07 7h3l2.07-7v7h3.53v-9.86h-5.48l-1.61 5.73-1.61-5.73h-5.5zm-5.4 0h3.89v-9.86h-3.89v3.44h-4.4v-3.44h-3.89v9.86h3.89V30.8h4.37zm-13.9-3.84a2.08 2.08 0 0 1-2.28 1.7c-1.42 0-2.4-.79-2.4-2.79s1-2.79 2.59-2.79a1.94 1.94 0 0 1 2.1 1.72h4.39c-.51-3.91-4.13-4.21-6.47-4.21s-6.73.17-6.73 5.27 4.37 5.27 6.73 5.27 3.86-.4 4.82-1.12a4.63 4.63 0 0 0 1.66-3.06zm-14.85.32c.52.08.7.37.7.66 0 .47-.33.8-1.55.8a3.18 3.18 0 0 1-1.32-.21.76.76 0 0 1-.41-.7h-4.69c0 2.9 3.28 3.31 6.28 3.31 4.34-.01 6.34-1.14 6.34-3.54 0-1.67-1.21-2.58-3.17-2.87l-4.65-.69c-.39-.06-.51-.23-.51-.51s.4-.7 1.56-.7a3.12 3.12 0 0 1 1.21.21.81.81 0 0 1 .56.76h4.53c-.14-2.08-1.95-3.23-6.33-3.23-3.2 0-5.7.69-5.7 3.24 0 1.38.79 2.48 2.69 2.77z" fill="#948b5b"/><path d="M156.32 21.8h2.46v-2.48c0-.9.49-1.28 1.14-1.28a.86.86 0 0 1 .95 1v2.79h2.46v-3.46c0-1.5-1-2.11-2.39-2.11a2.89 2.89 0 0 0-2.23.82v-.67h-2.39zm-9.13-2.7c0 2 1.21 2.92 4 2.92s4-.93 4-2.92-1.21-2.91-4-2.91-4 .93-4 2.91m2.58 0c0-.85.42-1.31 1.41-1.31s1.41.46 1.41 1.31-.41 1.32-1.41 1.32-1.41-.45-1.41-1.32m-6.19 2.7h2.47v-7.28h-2.46zm-3.86-2.22c0 .93-.92 1.13-1.74 1.13-.61 0-.92-.24-.92-.61s.22-.49.67-.53c.88-.08 1.58-.14 2-.23zm-2.44-1.54c.12-.52.68-.61 1.24-.61s1.14.17 1.14.52-.17.41-.66.44l-2.08.1c-1.82.08-2.52.71-2.52 1.7 0 1.38 1 1.82 2.7 1.82a3.8 3.8 0 0 0 2.7-.75 2.13 2.13 0 0 0 .09.53h2.52a1.42 1.42 0 0 1-.23-.84v-2.6c0-1.61-1-2.17-3.51-2.17a7.11 7.11 0 0 0-2.8.37 1.85 1.85 0 0 0-1.06 1.48zm-6.83 1.86c.26 0 .33.18.33.33s-.19.41-.82.41a1.82 1.82 0 0 1-.7-.1.52.52 0 0 1-.31-.43h-2.9c.08 1.36 1.19 1.89 3.76 1.89s3.81-.53 3.81-1.92c0-.92-.5-1.51-1.83-1.63l-2.35-.21c-.53 0-.66-.2-.66-.33s.14-.37.88-.37a1.49 1.49 0 0 1 .73.14.36.36 0 0 1 .19.33h2.78c0-1.53-1.89-1.83-3.57-1.83-2.41 0-3.59.54-3.59 1.81 0 .94.41 1.51 1.84 1.66zm-10.55 1.89h2.46v-2.05c0-1.16.94-1.45 1.81-1.45a4.86 4.86 0 0 1 1.23.2v-2.17a5.53 5.53 0 0 0-.81-.06 2.8 2.8 0 0 0-2.3 1.18v-1h-2.39zm-1.42-5.39h-2.43v2.54c0 .81-.37 1.29-1.14 1.29a.86.86 0 0 1-.95-1v-2.82h-2.51v3.5c0 1.5 1 2.11 2.39 2.11a2.89 2.89 0 0 0 2.23-.82v.6h2.39zm-10.77 3.78a1.46 1.46 0 0 1-1.28.47c-1.08 0-1.49-.59-1.49-1h5.42c0-2.69-1.71-3.49-4.1-3.49s-3.84 1-3.84 2.91 1.48 2.92 4.07 2.92a5.83 5.83 0 0 0 2.61-.49 2.33 2.33 0 0 0 1.23-1.34zm-2.77-1.74c.13-.68.62-.95 1.48-.95s1.41.36 1.46.95zm-6.49 1.47c.26 0 .33.18.33.33s-.19.41-.82.41a1.82 1.82 0 0 1-.7-.1.52.52 0 0 1-.31-.43h-2.9c.08 1.36 1.19 1.89 3.76 1.89s3.8-.53 3.8-1.92c0-.92-.5-1.51-1.83-1.63l-2.35-.21c-.53 0-.66-.2-.66-.33s.14-.37.88-.37a1.49 1.49 0 0 1 .73.14.36.36 0 0 1 .19.33h2.78c0-1.53-1.89-1.83-3.57-1.83-2.41 0-3.59.54-3.59 1.81 0 .94.41 1.51 1.84 1.66zm-8-4h2.46v-1.4h-2.42zm0 5.92h2.46v-5.42h-2.42zm-6.45 0h2.46v-2.09c0-1.16.94-1.45 1.81-1.45a4.87 4.87 0 0 1 1.23.2v-2.17a5.55 5.55 0 0 0-.81-.06 2.8 2.8 0 0 0-2.3 1.18v-1h-2.34zm-4.71 0h2.46v-3.88h1.33v-1.54h-1.29v-.16c0-.3.14-.43.59-.43h.74v-1.3c-.51 0-1.14-.06-1.62-.06-1.6 0-2.18.39-2.18 1.38v.57h-1.13v1.54h1.14z" fill="#1d1d1b"/></svg>