<svg data-name="Ebene 1" xmlns="http://www.w3.org/2000/svg" viewBox="0 0 189.56 48.65"><path d="M40.46 1.85a5.34 5.34 0 0 0-4-1.56 12.1 12.1 0 0 0-6.59 2.22 15.94 15.94 0 0 0-9.19-2.54A21.17 21.17 0 0 0 7.52 4.54q-5.95 4.54-5.95 10a6 6 0 0 0 1.55 4.34 5.46 5.46 0 0 0 4.14 1.62q4 0 8-3.85t4.07-7.63q0-3.09-3.2-3.09a9.7 9.7 0 0 0-6.48 2.92q-3.18 2.88-3.18 5.92a3.45 3.45 0 0 0 .61 2.08 1.81 1.81 0 0 0 1.5.85q.35 0 .35-.16c0-.12-.11-.18-.31-.18a1.33 1.33 0 0 1-1-.51 1.77 1.77 0 0 1-.44-1.21q0-2.84 3.17-6.09t5.94-3.24q2.77 0 2.77 2.82 0 3.54-4 7.29t-7.74 3.75a5 5 0 0 1-3.63-1.28 4.56 4.56 0 0 1-1.34-3.46q0-4.3 4.77-9.16A18.52 18.52 0 0 1 20.8.35q5.62 0 8.53 2.59a27 27 0 0 0-4.34 4.26 52.21 52.21 0 0 0-4.43 5.93q-3.76 6-4.88 7.55a19.58 19.58 0 0 1-2.48 2.82 10.48 10.48 0 0 1-7.4 3.16 6.48 6.48 0 0 1-3.82-1.07 3.18 3.18 0 0 1-1.52-2.68q0-1 .3-1c.06 0 .09.14.07.43q0 1 .93 1a1.17 1.17 0 0 0 .91-.49 1.72 1.72 0 0 0 .38-1.13q0-1.32-1.14-1.32a1.68 1.68 0 0 0-1.35.72A2.67 2.67 0 0 0 0 22.85a3.57 3.57 0 0 0 1.66 3 6.91 6.91 0 0 0 4.14 1.2 15.62 15.62 0 0 0 6.94-2 17 17 0 0 0 5.12-3.83 30.64 30.64 0 0 0 4-6.93q3.63-7.94 7.67-11.09a6 6 0 0 1 1.56 4.06 7.09 7.09 0 0 1-1.49 4.59 4.51 4.51 0 0 1-3.63 1.91 4.6 4.6 0 0 1-2.32-.67.74.74 0 0 0-.3-.11.15.15 0 0 0-.15.12q0 .37 1.15.78a6.41 6.41 0 0 0 2.16.42A6.26 6.26 0 0 0 31 12.45a5.84 5.84 0 0 0 1.92-4.34 6.8 6.8 0 0 0-2.8-5.29A11.75 11.75 0 0 1 36.49.7a4.82 4.82 0 0 1 3.69 1.49 5.53 5.53 0 0 1 1.4 3.94 8.39 8.39 0 0 1-.51 2.94.64.64 0 0 0 0 .18c0 .13.06.19.19.19s.33-.4.5-1.21a10.58 10.58 0 0 0 .26-2.22 5.64 5.64 0 0 0-1.56-4.16" fill="#948b5b"/><path d="M28.96 26.85a68.6 68.6 0 0 0-11.84 9.62 3 3 0 0 1-1.14-2.28 3.16 3.16 0 0 1 .33-1.37q.34-.7.65-.7c.07 0 .11 0 .11.12a2.05 2.05 0 0 1-.07.29 1.27 1.27 0 0 0-.19.62.81.81 0 0 0 .91.91 1.52 1.52 0 0 0 1.08-.51 1.46 1.46 0 0 0 .47-1.08 1.08 1.08 0 0 0-1.25-1.2 2.16 2.16 0 0 0-1.71.83 3 3 0 0 0-.7 2 3.43 3.43 0 0 0 1.23 2.64 28.41 28.41 0 0 0-3.66 4.74q-2.68-1.63-2.68-5.45 0-5.83 4.69-11.26t9.72-5.44a4.27 4.27 0 0 1 4.52 4.52 11.48 11.48 0 0 1-.47 3m4.26-1q-1.42 4.1-2.05 5.56a22.34 22.34 0 0 1-1.73 3.18 18.29 18.29 0 0 1-5.64 5.74 12.55 12.55 0 0 1-6.78 2.07 8 8 0 0 1-3.47-.72 27.53 27.53 0 0 1 3.61-4.76 4.58 4.58 0 0 0 1.88.47q2.83 0 5.92-3.11a17 17 0 0 0 4.31-7.23q2.57-1.84 4.74-3.28-.45 1.08-.79 2.08m-8.68 8.32q-2.85 2.86-5.46 2.86a3.43 3.43 0 0 1-1.68-.43 70.74 70.74 0 0 1 10.14-8.41l1.26-.84a17.74 17.74 0 0 1-4.23 6.86m15.5-15.23A25.47 25.47 0 0 1 36 22.13a13 13 0 0 1 2.38-4.21q1.54-1.8 2.79-1.8.52 0 .52.47 0 .82-1.61 2.39m1.07-3.13q-1.51 0-3.53 2.2a18.76 18.76 0 0 0-3.37 5.24q-2.09 1.33-4.81 3.24a10.35 10.35 0 0 0 .36-2.59 4.88 4.88 0 0 0-1.35-3.63 5 5 0 0 0-3.65-1.34 14 14 0 0 0-8.52 3.3 20 20 0 0 0-5.24 5.84 13 13 0 0 0-1.86 6.52q0 5.11 3.9 7.2a7.43 7.43 0 0 0-.94 3.35 6.11 6.11 0 0 0 .48 2.26q.48 1.21.9 1.21c.12 0 .19-.05.19-.16a.38.38 0 0 0-.11-.27 5.1 5.1 0 0 1-1-3.07 7.38 7.38 0 0 1 .86-3.11 8.75 8.75 0 0 0 3.65.72q7.21 0 13-5.73a13.51 13.51 0 0 0 2.89-3.9 37.34 37.34 0 0 0 1.92-6.48q.65-2.91 1-4a25.57 25.57 0 0 0 4.38-3.37q1.79-1.76 1.8-2.69 0-.76-.87-.76M177.46 37.32h6.29V25.41h5.82v-4h-17.93v4h5.82zm-19.56 0h6.29V25.41h5.82v-4h-17.93v4h5.82zm-13.68 0h6.29V21.4h-6.29zm-25 0h5.71V25.95l3.34 11.37h4.77l3.34-11.37v11.37h5.71V21.4h-8.85l-2.61 9.25-2.61-9.25h-8.85zm-8.72 0h6.3V21.4h-6.29v5.55h-7.07V21.4h-6.29v15.92h6.29v-6.36h7.07zm-22.45-6.2a3.36 3.36 0 0 1-3.65 2.73c-2.3 0-3.88-1.27-3.88-4.5s1.62-4.5 4.19-4.5a3.13 3.13 0 0 1 3.37 2.79h7.09c-.82-6.31-6.67-6.8-10.46-6.8s-10.91.27-10.91 8.52 7.1 8.49 10.91 8.49 6.24-.65 7.78-1.8a7.47 7.47 0 0 0 2.68-4.95zm-24 .51c.85.13 1.14.6 1.14 1.07 0 .76-.54 1.29-2.5 1.29a5.14 5.14 0 0 1-2.14-.33 1.23 1.23 0 0 1-.67-1.14h-7.55c0 4.68 5.31 5.35 10.14 5.35 7.07 0 10.23-1.83 10.23-5.71 0-2.7-2-4.17-5.13-4.64l-7.51-1.11c-.62-.09-.83-.38-.83-.83 0-.67.65-1.14 2.52-1.14a5 5 0 0 1 2 .33 1.31 1.31 0 0 1 1 1.27h7.31c-.26-3.35-3.26-5.19-10.26-5.19-5.17 0-9.21 1.11-9.21 5.24 0 2.23 1.27 4 4.35 4.48z" fill="#948b5b"/><path d="M178.16 16.43h4v-4c0-1.45.8-2.07 1.85-2.07a1.39 1.39 0 0 1 1.53 1.58v4.51h4v-5.6c0-2.42-1.66-3.41-3.85-3.41a4.67 4.67 0 0 0-3.6 1.32V7.72h-3.85zm-14.76-4.36c0 3.22 2 4.71 6.45 4.71s6.45-1.5 6.45-4.71-2-4.7-6.45-4.7-6.45 1.5-6.45 4.7m4.17 0c0-1.37.68-2.12 2.28-2.12s2.28.75 2.28 2.12-.67 2.13-2.28 2.13-2.28-.73-2.28-2.13m-10 4.36h4V4.66h-4zm-6.24-3.58c0 1.5-1.48 1.83-2.82 1.83-1 0-1.48-.38-1.48-1s.35-.8 1.08-.86c1.42-.13 2.55-.22 3.22-.37zm-3.95-2.48c.19-.84 1.1-1 2-1 1.13 0 1.85.27 1.85.84s-.27.67-1.07.72l-3.36.16c-2.95.13-4.08 1.15-4.08 2.74 0 2.23 1.69 2.95 4.36 2.95 2.12 0 3.47-.38 4.36-1.21a3.45 3.45 0 0 0 .14.86h4.08a2.3 2.3 0 0 1-.37-1.35v-4.23c0-2.59-1.61-3.5-5.67-3.5a11.48 11.48 0 0 0-4.52.6 3 3 0 0 0-1.72 2.39zm-11 3c.41 0 .54.29.54.54s-.3.67-1.32.67a2.94 2.94 0 0 1-1.13-.16.85.85 0 0 1-.49-.7h-4.68c.13 2.2 1.93 3.06 6.07 3.06s6.15-.86 6.15-3.1c0-1.48-.81-2.44-3-2.63l-3.79-.34c-.86-.08-1.07-.32-1.07-.54s.22-.6 1.42-.6a2.4 2.4 0 0 1 1.18.22.58.58 0 0 1 .3.54h4.49c-.08-2.47-3.06-3-5.76-3-3.89 0-5.8.88-5.8 2.93 0 1.51.67 2.44 3 2.67zm-17 3.06h4v-3.26c0-1.88 1.51-2.34 2.93-2.34a7.86 7.86 0 0 1 2 .32V7.58a8.94 8.94 0 0 0-1.3-.1 4.52 4.52 0 0 0-3.71 1.91V7.72h-3.85zm-2.3-8.71h-4v4.13c0 1.31-.6 2.09-1.85 2.09a1.39 1.39 0 0 1-1.53-1.58V7.72h-4v5.65c0 2.42 1.66 3.41 3.85 3.41a4.67 4.67 0 0 0 3.6-1.32v1H117zm-17.47 6.13a2.36 2.36 0 0 1-2.07.77c-1.75 0-2.4-1-2.4-1.58h8.76c.06-4.35-2.77-5.64-6.62-5.64s-6.21 1.69-6.21 4.7c0 3.18 2.39 4.71 6.58 4.71a9.41 9.41 0 0 0 4.22-.8 3.76 3.76 0 0 0 1.93-2.16zm-4.48-2.82c.21-1.1 1-1.53 2.39-1.53s2.28.59 2.36 1.53zm-10.46 2.34c.41 0 .54.29.54.54s-.3.67-1.32.67a2.94 2.94 0 0 1-1.09-.16.85.85 0 0 1-.49-.7h-4.73c.13 2.2 1.93 3.06 6.07 3.06s6.15-.86 6.15-3.1c0-1.48-.81-2.44-3-2.63l-3.79-.34c-.86-.08-1.07-.32-1.07-.54s.22-.6 1.42-.6a2.4 2.4 0 0 1 1.18.22.58.58 0 0 1 .3.54h4.49c-.08-2.47-3.06-3-5.77-3-3.89 0-5.8.88-5.8 2.93 0 1.51.67 2.44 3 2.67zM71.8 6.85h4V4.66h-4zm0 9.57h4v-8.7h-4zm-10.43 0h4v-3.25c0-1.88 1.51-2.34 2.93-2.34a7.87 7.87 0 0 1 2 .32V7.58a9 9 0 0 0-1.31-.1 4.52 4.52 0 0 0-3.71 1.91V7.72h-3.89zm-7.6 0h4V10.2h2.15V7.72H57.8v-.25c0-.48.22-.7 1-.7h1.19V4.66c-.83-.08-1.85-.1-2.61-.1-2.58 0-3.52.64-3.52 2.23v.92h-1.92v2.49h1.86z" fill="#1d1d1b"/></svg>